<?xml version="1.0" encoding="UTF-8" standalone="no"?>
<svg width="16px" height="22px" viewBox="0 0 16 22" version="1.1" xmlns="http://www.w3.org/2000/svg" xmlns:xlink="http://www.w3.org/1999/xlink">
    <!-- Generator: Sketch 3.7.2 (28276) - http://www.bohemiancoding.com/sketch -->
    <title>bag-dollar</title>
    <desc>Created with Sketch.</desc>
    <defs></defs>
    <g id="SVG-Icons" stroke="none" stroke-width="1" fill="none" fill-rule="evenodd">
        <g id="bag-dollar" fill="#000000">
            <g id="0351-bag-dollar">
                <g id="Group">
                    <path d="M9.5,14 L6,14 L6,13 L9.5,13 C9.776,13 10,12.776 10,12.5 C10,12.224 9.776,12 9.5,12 L8,12 L8,11.5 C8,11.224 7.776,11 7.5,11 C7.224,11 7,11.224 7,11.5 L7,12 L5.5,12 C5.224,12 5,12.224 5,12.5 L5,14.5 C5,14.776 5.224,15 5.5,15 L9,15 L9,16 L5.5,16 C5.224,16 5,16.224 5,16.5 C5,16.776 5.224,17 5.5,17 L7,17 L7,17.5 C7,17.776 7.224,18 7.5,18 C7.776,18 8,17.776 8,17.5 L8,17 L9.5,17 C9.776,17 10,16.776 10,16.5 L10,14.5 C10,14.224 9.776,14 9.5,14 L9.5,14 Z" id="Shape"></path>
                    <path d="M13.733,11.136 C13.017,9.933 12.107,8.926 11.375,8.118 C10.836,7.522 10.282,6.91 10.084,6.485 C10.415,6.292 10.64,6.067 10.854,5.854 C11.049,5.659 11.049,5.342 10.854,5.147 C10.683,4.976 10.42,4.955 10.226,5.083 C10.448,4.419 10.896,3.58 11.801,2.901 C11.994,2.757 12.056,2.495 11.949,2.279 C11.923,2.226 11.296,0.99 10.001,0.99 C9.191,0.99 8.938,1.5 8.803,1.773 C8.695,1.991 8.691,2 8.501,2 C8.123,2 7.692,1.781 7.235,1.549 C6.693,1.274 6.133,0.99 5.516,0.99 L5.496,0.99 C4.326,1.002 3.265,2.03 3.148,2.147 C3.045,2.25 2.993,2.391 3.003,2.536 C3.013,2.681 3.086,2.814 3.202,2.901 C3.938,3.453 4.463,4.173 4.762,5.042 C4.767,5.056 4.771,5.069 4.776,5.083 C4.582,4.956 4.319,4.978 4.149,5.148 C3.954,5.343 3.954,5.66 4.149,5.855 C4.362,6.068 4.587,6.293 4.919,6.487 C4.722,6.911 4.167,7.523 3.627,8.12 C2.895,8.929 1.984,9.935 1.269,11.138 C0.417,12.571 0.002,13.999 0.002,15.502 C0.002,17.548 0.757,19.038 2.245,19.931 C3.463,20.662 5.134,21.002 7.502,21.002 C9.87,21.002 11.541,20.662 12.759,19.931 C14.247,19.038 15.002,17.548 15.002,15.502 C15.002,13.999 14.588,12.571 13.735,11.138 L13.733,11.136 Z M4.278,2.501 C4.621,2.253 5.087,1.994 5.505,1.99 L5.515,1.99 C5.893,1.99 6.324,2.209 6.781,2.441 C7.323,2.716 7.883,3 8.5,3 C9.31,3 9.563,2.49 9.698,2.217 C9.806,1.999 9.81,1.99 10,1.99 C10.367,1.99 10.647,2.208 10.825,2.407 C9.446,3.636 9.113,5.155 9.033,5.844 C8.674,5.942 8.19,6.001 7.5,6.001 C6.81,6.001 6.326,5.942 5.967,5.844 C5.889,5.172 5.57,3.713 4.278,2.502 L4.278,2.501 Z M7.5,20 C2.944,20 1,18.654 1,15.5 C1,12.508 2.946,10.359 4.366,8.789 C5.056,8.027 5.606,7.419 5.852,6.842 C6.276,6.94 6.81,7 7.5,7 C8.19,7 8.724,6.94 9.148,6.842 C9.394,7.419 9.944,8.027 10.633,8.789 C12.054,10.359 13.999,12.508 13.999,15.5 C13.999,18.654 12.055,20 7.499,20 L7.5,20 Z" id="Shape"></path>
                </g>
            </g>
        </g>
    </g>
</svg>