<?xml version="1.0" encoding="UTF-8" standalone="no"?>
<svg width="17px" height="20px" viewBox="0 0 17 20" version="1.1" xmlns="http://www.w3.org/2000/svg" xmlns:xlink="http://www.w3.org/1999/xlink">
    <!-- Generator: Sketch 3.7.2 (28276) - http://www.bohemiancoding.com/sketch -->
    <title>calculator</title>
    <desc>Created with Sketch.</desc>
    <defs></defs>
    <g id="SVG-Icons" stroke="none" stroke-width="1" fill="none" fill-rule="evenodd">
        <g id="calculator" fill="#000000">
            <g id="0360-calculator2">
                <g id="Group">
                    <path d="M15.5,20 L1.5,20 C0.673,20 0,19.327 0,18.5 L0,1.5 C0,0.673 0.673,0 1.5,0 L15.5,0 C16.327,0 17,0.673 17,1.5 L17,18.5 C17,19.327 16.327,20 15.5,20 L15.5,20 Z M1.5,1 C1.224,1 1,1.224 1,1.5 L1,18.5 C1,18.776 1.224,19 1.5,19 L15.5,19 C15.776,19 16,18.776 16,18.5 L16,1.5 C16,1.224 15.776,1 15.5,1 L1.5,1 L1.5,1 Z" id="Shape"></path>
                    <path d="M14.5,7 L2.5,7 C2.224,7 2,6.776 2,6.5 L2,2.5 C2,2.224 2.224,2 2.5,2 L14.5,2 C14.776,2 15,2.224 15,2.5 L15,6.5 C15,6.776 14.776,7 14.5,7 L14.5,7 Z M3,6 L14,6 L14,3 L3,3 L3,6 L3,6 Z" id="Shape"></path>
                    <path d="M14.5,8 L2.5,8 C2.224,8 2,8.224 2,8.5 L2,17.5 C2,17.776 2.224,18 2.5,18 L14.5,18 C14.776,18 15,17.776 15,17.5 L15,8.5 C15,8.224 14.776,8 14.5,8 L14.5,8 Z M14,11 L12,11 L12,9 L14,9 L14,11 L14,11 Z M6,12 L8,12 L8,14 L6,14 L6,12 L6,12 Z M5,14 L3,14 L3,12 L5,12 L5,14 L5,14 Z M6,11 L6,9 L8,9 L8,11 L6,11 L6,11 Z M8,15 L8,17 L6,17 L6,15 L8,15 L8,15 Z M9,15 L11,15 L11,17 L9,17 L9,15 L9,15 Z M11,14 L9,14 L9,12 L11,12 L11,14 L11,14 Z M9,11 L9,9 L11,9 L11,11 L9,11 L9,11 Z M5,9 L5,11 L3,11 L3,9 L5,9 L5,9 Z M3,15 L5,15 L5,17 L3,17 L3,15 L3,15 Z M12,17 L12,12 L14,12 L14,17 L12,17 L12,17 Z" id="Shape"></path>
                </g>
            </g>
        </g>
    </g>
</svg>