<?xml version="1.0" encoding="UTF-8" standalone="no"?>
<svg width="19px" height="15px" viewBox="0 0 19 15" version="1.1" xmlns="http://www.w3.org/2000/svg" xmlns:xlink="http://www.w3.org/1999/xlink">
    <!-- Generator: Sketch 3.7.2 (28276) - http://www.bohemiancoding.com/sketch -->
    <title>cash-dollar</title>
    <desc>Created with Sketch.</desc>
    <defs></defs>
    <g id="SVG-Icons" stroke="none" stroke-width="1" fill="none" fill-rule="evenodd">
        <g id="cash-dollar" fill="#000000">
            <g id="0347-cash-dollar">
                <g id="Group">
                    <path d="M18.5,15 L0.5,15 C0.224,15 0,14.776 0,14.5 L0,4.5 C0,4.224 0.224,4 0.5,4 L18.5,4 C18.776,4 19,4.224 19,4.5 L19,14.5 C19,14.776 18.776,15 18.5,15 L18.5,15 Z M1,14 L18,14 L18,5 L1,5 L1,14 L1,14 Z" id="Shape"></path>
                    <path d="M11.5,9 L8,9 L8,8 L11.5,8 C11.776,8 12,7.776 12,7.5 C12,7.224 11.776,7 11.5,7 L10,7 L10,6.5 C10,6.224 9.776,6 9.5,6 C9.224,6 9,6.224 9,6.5 L9,7 L7.5,7 C7.224,7 7,7.224 7,7.5 L7,9.5 C7,9.776 7.224,10 7.5,10 L11,10 L11,11 L7.5,11 C7.224,11 7,11.224 7,11.5 C7,11.776 7.224,12 7.5,12 L9,12 L9,12.5 C9,12.776 9.224,13 9.5,13 C9.776,13 10,12.776 10,12.5 L10,12 L11.5,12 C11.776,12 12,11.776 12,11.5 L12,9.5 C12,9.224 11.776,9 11.5,9 L11.5,9 Z" id="Shape"></path>
                    <path d="M17.5,3 L1.5,3 C1.224,3 1,2.776 1,2.5 C1,2.224 1.224,2 1.5,2 L17.5,2 C17.776,2 18,2.224 18,2.5 C18,2.776 17.776,3 17.5,3 L17.5,3 Z" id="Shape"></path>
                    <path d="M16.5,1 L2.5,1 C2.224,1 2,0.776 2,0.5 C2,0.224 2.224,0 2.5,0 L16.5,0 C16.776,0 17,0.224 17,0.5 C17,0.776 16.776,1 16.5,1 L16.5,1 Z" id="Shape"></path>
                </g>
            </g>
        </g>
    </g>
</svg>