<?xml version="1.0" encoding="UTF-8" standalone="no"?>
<svg width="19px" height="14px" viewBox="0 0 19 14" version="1.1" xmlns="http://www.w3.org/2000/svg" xmlns:xlink="http://www.w3.org/1999/xlink">
    <!-- Generator: Sketch 3.7.2 (28276) - http://www.bohemiancoding.com/sketch -->
    <title>coin-dollar</title>
    <desc>Created with Sketch.</desc>
    <defs></defs>
    <g id="SVG-Icons" stroke="none" stroke-width="1" fill="none" fill-rule="evenodd">
        <g id="coin-dollar" fill="#000000">
            <g id="0355-coin-dollar">
                <g id="Group">
                    <path d="M12.5,5 L7,5 L7,4 L12.5,4 C12.776,4 13,3.776 13,3.5 C13,3.224 12.776,3 12.5,3 L10,3 L10,2.5 C10,2.224 9.776,2 9.5,2 C9.224,2 9,2.224 9,2.5 L9,3 L6.5,3 C6.224,3 6,3.224 6,3.5 L6,5.5 C6,5.776 6.224,6 6.5,6 L12,6 L12,7 L6.5,7 C6.224,7 6,7.224 6,7.5 C6,7.776 6.224,8 6.5,8 L9,8 L9,8.5 C9,8.776 9.224,9 9.5,9 C9.776,9 10,8.776 10,8.5 L10,8 L12.5,8 C12.776,8 13,7.776 13,7.5 L13,5.5 C13,5.224 12.776,5 12.5,5 L12.5,5 Z" id="Shape"></path>
                    <path d="M16.107,1.527 C14.334,0.542 11.988,0 9.5,0 C7.012,0 4.666,0.542 2.893,1.527 C1.027,2.564 0,3.974 0,5.5 L0,8.5 C0,10.025 1.027,11.436 2.893,12.473 C4.666,13.458 7.012,14 9.5,14 C11.988,14 14.334,13.458 16.107,12.473 C17.973,11.436 19,10.026 19,8.5 L19,5.5 C19,3.975 17.973,2.564 16.107,1.527 L16.107,1.527 Z M3.379,2.402 C5.006,1.498 7.18,1 9.5,1 C11.82,1 13.994,1.498 15.621,2.402 C17.155,3.254 18,4.355 18,5.5 C18,6.645 17.155,7.746 15.621,8.598 C13.994,9.502 11.82,10 9.5,10 C7.18,10 5.006,9.502 3.379,8.598 C1.845,7.746 1,6.645 1,5.5 C1,4.355 1.845,3.254 3.379,2.402 L3.379,2.402 Z M18,8.5 C18,9.646 17.155,10.746 15.621,11.598 C13.994,12.502 11.82,13 9.5,13 C7.18,13 5.006,12.502 3.379,11.598 C1.845,10.746 1,9.645 1,8.5 L1,7.987 C1.474,8.535 2.109,9.037 2.893,9.473 C4.666,10.458 7.012,11 9.5,11 C11.988,11 14.334,10.458 16.107,9.473 C16.891,9.037 17.526,8.536 18,7.987 L18,8.5 L18,8.5 Z" id="Shape"></path>
                </g>
            </g>
        </g>
    </g>
</svg>