<?xml version="1.0" encoding="UTF-8" standalone="no"?>
<svg width="20px" height="14px" viewBox="0 0 20 14" version="1.1" xmlns="http://www.w3.org/2000/svg" xmlns:xlink="http://www.w3.org/1999/xlink">
    <!-- Generator: Sketch 3.7.2 (28276) - http://www.bohemiancoding.com/sketch -->
    <title>credit-card</title>
    <desc>Created with Sketch.</desc>
    <defs></defs>
    <g id="SVG-Icons" stroke="none" stroke-width="1" fill="none" fill-rule="evenodd">
        <g id="credit-card" fill="#000000">
            <g id="0346-credit-card">
                <g id="Group">
                    <path d="M18.5,0 L1.5,0 C0.673,0 0,0.673 0,1.5 L0,12.5 C0,13.327 0.673,14 1.5,14 L18.5,14 C19.327,14 20,13.327 20,12.5 L20,1.5 C20,0.673 19.327,0 18.5,0 L18.5,0 Z M1.5,1 L18.5,1 C18.776,1 19,1.224 19,1.5 L19,2 L1,2 L1,1.5 C1,1.224 1.224,1 1.5,1 L1.5,1 Z M19,3 L19,6 L1,6 L1,3 L19,3 L19,3 Z M18.5,13 L1.5,13 C1.224,13 1,12.776 1,12.5 L1,7 L19,7 L19,12.5 C19,12.776 18.776,13 18.5,13 L18.5,13 Z" id="Shape"></path>
                    <polygon id="Shape" points="17 11 18 11 18 12 17 12"></polygon>
                    <polygon id="Shape" points="13 11 16 11 16 12 13 12"></polygon>
                    <polygon id="Shape" points="10 11 12 11 12 12 10 12"></polygon>
                </g>
            </g>
        </g>
    </g>
</svg>