<?xml version="1.0" encoding="UTF-8" standalone="no"?>
<svg width="71px" height="53px" viewBox="0 0 71 53" version="1.1" xmlns="http://www.w3.org/2000/svg" xmlns:xlink="http://www.w3.org/1999/xlink">
    <!-- Generator: Sketch 3.7.2 (28276) - http://www.bohemiancoding.com/sketch -->
    <title>laptop</title>
    <desc>Created with Sketch.</desc>
    <defs></defs>
    <g id="SVG-Icons" stroke="none" stroke-width="1" fill="none" fill-rule="evenodd">
        <g id="laptop" fill="#000000">
            <g id="Group">
                <g>
                    <path d="M12.3035714,38.8666667 L58.002551,38.8666667 C60.9097092,38.8666667 63.2755102,36.4887333 63.2755102,33.5666667 L63.2755102,5.3 C63.2755102,2.37793333 60.9097092,0 58.002551,0 L12.3035714,0 C9.39641327,0 7.03061224,2.37793333 7.03061224,5.3 L7.03061224,33.5666667 C7.03061224,36.4887333 9.39641327,38.8666667 12.3035714,38.8666667 L12.3035714,38.8666667 Z M10.5459184,5.3 C10.5459184,4.3248 11.3333469,3.53333333 12.3035714,3.53333333 L58.002551,3.53333333 C58.9727755,3.53333333 59.7602041,4.3248 59.7602041,5.3 L59.7602041,33.5666667 C59.7602041,34.5418667 58.9727755,35.3333333 58.002551,35.3333333 L12.3035714,35.3333333 C11.3333469,35.3333333 10.5459184,34.5418667 10.5459184,33.5666667 L10.5459184,5.3 L10.5459184,5.3 Z" id="Shape"></path>
                    <path d="M68.5484694,42.4 L1.75765306,42.4 C0.787428571,42.4 0,43.1914667 0,44.1666667 L0,47.7 C0,50.6220667 2.36580102,53 5.27295918,53 L65.0331633,53 C67.9403214,53 70.3061224,50.6220667 70.3061224,47.7 L70.3061224,44.1666667 C70.3061224,43.1914667 69.5186939,42.4 68.5484694,42.4 L68.5484694,42.4 Z M65.0331633,49.4666667 L5.27295918,49.4666667 C4.30273469,49.4666667 3.51530612,48.6752 3.51530612,47.7 L3.51530612,45.9333333 L66.7908163,45.9333333 L66.7908163,47.7 C66.7908163,48.6752 66.0033878,49.4666667 65.0331633,49.4666667 L65.0331633,49.4666667 Z" id="Shape"></path>
                </g>
            </g>
        </g>
    </g>
</svg>