<?xml version="1.0" encoding="UTF-8" standalone="no"?>
<svg width="180px" height="180px" viewBox="0 0 180 180" version="1.1" xmlns="http://www.w3.org/2000/svg" xmlns:xlink="http://www.w3.org/1999/xlink">
    <!-- Generator: Sketch 3.7.2 (28276) - http://www.bohemiancoding.com/sketch -->
    <title>logo</title>
    <desc>Created with Sketch.</desc>
    <defs>
        <linearGradient x1="50%" y1="0%" x2="50%" y2="100%" id="linearGradient-1">
            <stop stop-color="#D2E3E7" offset="0%"></stop>
            <stop stop-color="#ABB3B3" offset="100%"></stop>
        </linearGradient>
        <path d="M137.109375,3.06819787e-15 C163.125,3.06819787e-15 180,16.875 180,42.890625 L180,137.109375 C180,163.125 163.125,180 137.109375,180 L42.890625,180 C16.875,180 0,163.125 0,137.109375 L0,42.890625 C0,16.875 16.875,3.06819788e-15 42.890625,3.06819788e-15 L137.109375,3.06819787e-15 Z" id="path-2"></path>
        <linearGradient x1="50%" y1="100%" x2="50%" y2="42.0353832%" id="linearGradient-4">
            <stop stop-color="#FFFFFF" offset="0%"></stop>
            <stop stop-color="#ECECEC" offset="100%"></stop>
        </linearGradient>
    </defs>
    <g id="SVG-Icons" stroke="none" stroke-width="1" fill="none" fill-rule="evenodd">
        <g id="logo">
            <g id="Icon">
                <mask id="mask-3" fill="white">
                    <use xlink:href="#path-2"></use>
                </mask>
                <use id="App-Icon-Shape" fill="url(#linearGradient-1)" xlink:href="#path-2"></use>
                <rect id="Background" fill="url(#linearGradient-4)" mask="url(#mask-3)" x="0" y="0" width="180" height="180"></rect>
                <path d="M109.5,67.5 C107.166655,65.2499887 104.895844,63.5000062 102.6875,62.25 C100.479156,60.9999938 97.6666838,60.375 94.25,60.375 C90.4166475,60.375 87.3750113,61.4583225 85.125,63.625 C82.8749887,65.7916775 81.75,68.708315 81.75,72.375 C81.75,75.375015 82.6041581,77.8333238 84.3125,79.75 C86.0208419,81.6666762 88.1666537,83.3541594 90.75,84.8125 C93.3333463,86.2708406 96.1458181,87.6874931 99.1875,89.0625 C102.229182,90.4375069 105.041654,92.1041569 107.625,94.0625 C110.208346,96.0208431 112.354158,98.4374856 114.0625,101.3125 C115.770842,104.187514 116.625,107.874977 116.625,112.375 C116.625,118.37503 114.895851,123.291647 111.4375,127.125 C107.979149,130.958352 103.25003,133.291663 97.25,134.125 L97.25,146.75 L89.75,146.75 L89.75,134.375 C85.74998,133.958331 81.8750187,132.854176 78.125,131.0625 C74.3749813,129.270824 71.16668,127.166679 68.5,124.75 L73.25,117.625 C75.91668,119.958345 78.8541506,121.937492 82.0625,123.5625 C85.2708494,125.187508 88.7916475,126 92.625,126 C97.29169,126 100.770822,124.833345 103.0625,122.5 C105.354178,120.166655 106.5,117.041686 106.5,113.125 C106.5,109.79165 105.645842,107.020844 103.9375,104.8125 C102.229158,102.604156 100.083346,100.687508 97.5,99.0625 C94.9166537,97.4374919 92.1041819,95.9166738 89.0625,94.5 C86.0208181,93.0833262 83.2083463,91.4583425 80.625,89.625 C78.0416537,87.7916575 75.8958419,85.5625131 74.1875,82.9375 C72.4791581,80.3124869 71.625,76.9583538 71.625,72.875 C71.625,67.2916388 73.2708169,62.6458519 76.5625,58.9375 C79.8541831,55.2291481 84.2499725,52.9166713 89.75,52 L89.75,39.5 L97.25,39.5 L97.25,51.875 C101.25002,52.2916687 104.645819,53.3749912 107.4375,55.125 C110.229181,56.8750087 112.749989,58.9583212 115,61.375 L109.5,67.5 Z" id="$" fill="#407849" mask="url(#mask-3)"></path>
                <circle id="Oval-37" stroke="#282828" mask="url(#mask-3)" cx="90.5" cy="92.5" r="63.5"></circle>
            </g>
        </g>
    </g>
</svg>