<?xml version="1.0" encoding="UTF-8" standalone="no"?>
<svg width="17px" height="20px" viewBox="0 0 17 20" version="1.1" xmlns="http://www.w3.org/2000/svg" xmlns:xlink="http://www.w3.org/1999/xlink">
    <!-- Generator: Sketch 3.7.2 (28276) - http://www.bohemiancoding.com/sketch -->
    <title>receipt</title>
    <desc>Created with Sketch.</desc>
    <defs></defs>
    <g id="SVG-Icons" stroke="none" stroke-width="1" fill="none" fill-rule="evenodd">
        <g id="receipt" fill="#000000">
            <g id="0344-receipt">
                <g id="Group">
                    <path d="M16.5,20 C16.424,20 16.347,19.983 16.276,19.947 L14.5,19.059 L12.724,19.947 C12.583,20.017 12.418,20.017 12.277,19.947 L10.501,19.059 L8.725,19.947 C8.584,20.017 8.419,20.017 8.278,19.947 L6.502,19.059 L4.726,19.947 C4.585,20.017 4.42,20.017 4.279,19.947 L2.503,19.059 L0.727,19.947 C0.572,20.024 0.388,20.016 0.241,19.925 C0.094,19.834 0.004,19.673 0.004,19.5 L0.004,1.5 C0.004,1.311 0.111,1.137 0.28,1.053 L2.28,0.053 C2.421,-0.017 2.586,-0.017 2.727,0.053 L4.503,0.941 L6.279,0.053 C6.42,-0.017 6.585,-0.017 6.726,0.053 L8.502,0.941 L10.278,0.053 C10.419,-0.017 10.584,-0.017 10.725,0.053 L12.501,0.941 L14.277,0.053 C14.418,-0.017 14.583,-0.017 14.724,0.053 L16.724,1.053 C16.893,1.138 17,1.311 17,1.5 L17,19.5 C17,19.673 16.91,19.834 16.763,19.925 C16.683,19.975 16.592,20 16.5,20 L16.5,20 Z M10.5,18 C10.577,18 10.653,18.018 10.724,18.053 L12.5,18.941 L14.276,18.053 C14.417,17.983 14.582,17.983 14.723,18.053 L15.999,18.691 L15.999,1.809 L14.499,1.059 L12.723,1.947 C12.582,2.017 12.417,2.017 12.276,1.947 L10.5,1.059 L8.724,1.947 C8.583,2.017 8.418,2.017 8.277,1.947 L6.501,1.059 L4.725,1.947 C4.584,2.017 4.419,2.017 4.278,1.947 L2.502,1.059 L1.002,1.809 L1.002,18.691 L2.278,18.053 C2.419,17.983 2.584,17.983 2.725,18.053 L4.501,18.941 L6.277,18.053 C6.418,17.983 6.583,17.983 6.724,18.053 L8.5,18.941 L10.276,18.053 C10.346,18.018 10.423,18 10.5,18 L10.5,18 Z" id="Shape"></path>
                    <path d="M10.5,13 L7,13 L7,12 L10.5,12 C10.776,12 11,11.776 11,11.5 C11,11.224 10.776,11 10.5,11 L9,11 L9,10.5 C9,10.224 8.776,10 8.5,10 C8.224,10 8,10.224 8,10.5 L8,11 L6.5,11 C6.224,11 6,11.224 6,11.5 L6,13.5 C6,13.776 6.224,14 6.5,14 L10,14 L10,15 L6.5,15 C6.224,15 6,15.224 6,15.5 C6,15.776 6.224,16 6.5,16 L8,16 L8,16.5 C8,16.776 8.224,17 8.5,17 C8.776,17 9,16.776 9,16.5 L9,16 L10.5,16 C10.776,16 11,15.776 11,15.5 L11,13.5 C11,13.224 10.776,13 10.5,13 L10.5,13 Z" id="Shape"></path>
                    <path d="M11.5,5 L5.5,5 C5.224,5 5,4.776 5,4.5 C5,4.224 5.224,4 5.5,4 L11.5,4 C11.776,4 12,4.224 12,4.5 C12,4.776 11.776,5 11.5,5 L11.5,5 Z" id="Shape"></path>
                    <path d="M13.5,7 L3.5,7 C3.224,7 3,6.776 3,6.5 C3,6.224 3.224,6 3.5,6 L13.5,6 C13.776,6 14,6.224 14,6.5 C14,6.776 13.776,7 13.5,7 L13.5,7 Z" id="Shape"></path>
                    <path d="M13.5,9 L3.5,9 C3.224,9 3,8.776 3,8.5 C3,8.224 3.224,8 3.5,8 L13.5,8 C13.776,8 14,8.224 14,8.5 C14,8.776 13.776,9 13.5,9 L13.5,9 Z" id="Shape"></path>
                </g>
            </g>
        </g>
    </g>
</svg>