<?xml version="1.0" encoding="UTF-8" standalone="no"?>
<svg width="32px" height="53px" viewBox="0 0 32 53" version="1.1" xmlns="http://www.w3.org/2000/svg" xmlns:xlink="http://www.w3.org/1999/xlink">
    <!-- Generator: Sketch 3.7.2 (28276) - http://www.bohemiancoding.com/sketch -->
    <title>smartphone</title>
    <desc>Created with Sketch.</desc>
    <defs></defs>
    <g id="SVG-Icons" stroke="none" stroke-width="1" fill="none" fill-rule="evenodd">
        <g id="smartphone" fill="#000000">
            <g id="Group">
                <g>
                    <path d="M17.3333333,47.7 L14.6666667,47.7 C13.9306667,47.7 13.3333333,47.1064 13.3333333,46.375 C13.3333333,45.6436 13.9306667,45.05 14.6666667,45.05 L17.3333333,45.05 C18.0693333,45.05 18.6666667,45.6436 18.6666667,46.375 C18.6666667,47.1064 18.0693333,47.7 17.3333333,47.7 L17.3333333,47.7 Z" id="Shape"></path>
                    <path d="M28,53 L4,53 C1.79466667,53 0,51.21655 0,49.025 L0,3.975 C0,1.78345 1.79466667,0 4,0 L28,0 C30.2053333,0 32,1.78345 32,3.975 L32,49.025 C32,51.21655 30.2053333,53 28,53 L28,53 Z M4,2.65 C3.264,2.65 2.66666667,3.2436 2.66666667,3.975 L2.66666667,49.025 C2.66666667,49.7564 3.264,50.35 4,50.35 L28,50.35 C28.736,50.35 29.3333333,49.7564 29.3333333,49.025 L29.3333333,3.975 C29.3333333,3.2436 28.736,2.65 28,2.65 L4,2.65 L4,2.65 Z" id="Shape"></path>
                    <path d="M25.3333333,42.4 L6.66666667,42.4 C5.93066667,42.4 5.33333333,41.8064 5.33333333,41.075 L5.33333333,6.625 C5.33333333,5.8936 5.93066667,5.3 6.66666667,5.3 L25.3333333,5.3 C26.0693333,5.3 26.6666667,5.8936 26.6666667,6.625 L26.6666667,41.075 C26.6666667,41.8064 26.0693333,42.4 25.3333333,42.4 L25.3333333,42.4 Z M8,39.75 L24,39.75 L24,7.95 L8,7.95 L8,39.75 L8,39.75 Z" id="Shape"></path>
                </g>
            </g>
        </g>
    </g>
</svg>