<?xml version="1.0" encoding="UTF-8" standalone="no"?>
<svg width="19px" height="20px" viewBox="0 0 19 20" version="1.1" xmlns="http://www.w3.org/2000/svg" xmlns:xlink="http://www.w3.org/1999/xlink">
    <!-- Generator: Sketch 3.7.2 (28276) - http://www.bohemiancoding.com/sketch -->
    <title>wallet-dollar</title>
    <desc>Created with Sketch.</desc>
    <defs></defs>
    <g id="SVG-Icons" stroke="none" stroke-width="1" fill="none" fill-rule="evenodd">
        <g id="wallet-dollar" fill="#000000">
            <g id="0345-wallet">
                <g id="Group">
                    <path d="M17.5,9 L17,9 L17,6.5 C17,5.673 16.327,5 15.5,5 L13,5 L13,0.5 C13,0.224 12.776,0 12.5,0 L2.5,0 C2.224,0 2,0.224 2,0.5 L2,5.05 C0.86,5.282 0,6.292 0,7.5 L0,18.5 C0,19.327 0.673,20 1.5,20 L17.5,20 C18.327,20 19,19.327 19,18.5 L19,10.5 C19,9.673 18.327,9 17.5,9 L17.5,9 Z M3,1 L12,1 L12,7 L3,7 L3,1 L3,1 Z M2,6.086 L2,7.5 C2,7.776 2.224,8 2.5,8 L14.5,8 C14.776,8 15,7.776 15,7.5 C15,7.224 14.776,7 14.5,7 L13,7 L13,6 L15.5,6 C15.776,6 16,6.224 16,6.5 L16,9 L2.5,9 C1.673,9 1,8.327 1,7.5 C1,6.848 1.418,6.292 2,6.086 L2,6.086 Z M18,18.5 C18,18.776 17.776,19 17.5,19 L1.5,19 C1.224,19 1,18.776 1,18.5 L1,9.499 C1.418,9.814 1.938,10 2.5,10 L17.5,10 C17.776,10 18,10.224 18,10.5 L18,18.5 L18,18.5 Z" id="Shape"></path>
                    <path d="M10.5,3 L10,3 L10,2.5 C10,2.224 9.776,2 9.5,2 L7.5,2 C7.224,2 7,2.224 7,2.5 L7,4 L6,4 L6,2.5 C6,2.224 5.776,2 5.5,2 C5.224,2 5,2.224 5,2.5 L5,3 L4.5,3 C4.224,3 4,3.224 4,3.5 C4,3.776 4.224,4 4.5,4 L5,4 L5,4.5 C5,4.776 5.224,5 5.5,5 L7.5,5 C7.776,5 8,4.776 8,4.5 L8,3 L9,3 L9,4.5 C9,4.776 9.224,5 9.5,5 C9.776,5 10,4.776 10,4.5 L10,4 L10.5,4 C10.776,4 11,3.776 11,3.5 C11,3.224 10.776,3 10.5,3 L10.5,3 Z" id="Shape"></path>
                    <path d="M16.5,18 L12.5,18 C12.224,18 12,17.776 12,17.5 C12,17.224 12.224,17 12.5,17 L16.5,17 C16.776,17 17,17.224 17,17.5 C17,17.776 16.776,18 16.5,18 L16.5,18 Z" id="Shape"></path>
                </g>
            </g>
        </g>
    </g>
</svg>